# xmcd CD database file
#
# Track frame offsets:
#	187
#	22537
#	43987
#
# Disc length: 881 seconds
#
# Revision: 0
# Processed by: cddbd v1.5PL3 Copyright (c) Steve Scherf et al.
# Submitted via: CDex 1.51
#
DISCID=18036f03
DTITLE=聖飢魔II - 空の雫
DYEAR=1998
DGENRE=Rock
TTITLE0=空の雫
TTITLE1=スキャンダラスな絆
TTITLE2=空の雫 (オリジナル・カラオケ)
EXTD=YEAR: 1998
EXTT0=
EXTT1=
EXTT2=
PLAYORDER=
